<?xml version="1.0" encoding="utf-8"?>
<!-- Generator: Adobe Illustrator 20.1.0, SVG Export Plug-In . SVG Version: 6.00 Build 0)  -->
<svg version="1.1" id="Layer_1" xmlns="http://www.w3.org/2000/svg" xmlns:xlink="http://www.w3.org/1999/xlink" x="0px" y="0px"
	 viewBox="0 0 49.5 49.2" style="enable-background:new 0 0 49.5 49.2;" xml:space="preserve">
<style type="text/css">
	.st0{fill-rule:evenodd;clip-rule:evenodd;}
</style>
<path class="st0" d="M48.7,48.2c-0.6,0.6-1.5,0.6-2,0L33.3,34.9c-3.4,2.9-7.8,4.8-12.7,4.8c-10.8,0-19.5-8.7-19.5-19.5
	C1.2,9.4,9.9,0.7,20.7,0.7c10.8,0,19.5,8.7,19.5,19.5c0,4.9-1.8,9.3-4.8,12.7l13.4,13.4C49.3,46.8,49.3,47.7,48.7,48.2z M37.2,20.2
	c0-9.1-7.4-16.5-16.5-16.5c-9.1,0-16.5,7.4-16.5,16.5c0,9.1,7.4,16.5,16.5,16.5C29.8,36.7,37.2,29.3,37.2,20.2z"/>
</svg>
